<?xml version="1.0" encoding="UTF-8"?>
<!DOCTYPE svg PUBLIC "-//W3C//DTD SVG 1.1//EN" "http://www.w3.org/Graphics/SVG/1.1/DTD/svg11.dtd">
<svg xmlns="http://www.w3.org/2000/svg" version="1.1" width="512px" height="512px" style="shape-rendering:geometricPrecision; text-rendering:geometricPrecision; image-rendering:optimizeQuality; fill-rule:evenodd; clip-rule:evenodd" xmlns:xlink="http://www.w3.org/1999/xlink">
<g><path style="opacity:1" fill="#e1dce0" d="M 35.5,-0.5 C 44.8333,-0.5 54.1667,-0.5 63.5,-0.5C 63.3333,123.167 63.5,246.834 64,370.5C 65.1667,372.333 66.6667,373.833 68.5,375C 168.166,375.5 267.833,375.667 367.5,375.5C 367.666,381.176 367.499,386.843 367,392.5C 366.5,396.333 364.333,398.5 360.5,399C 269.501,399.5 178.501,399.667 87.5,399.5C 70.1635,399.667 52.8301,399.5 35.5,399C 33.6667,398.5 32.5,397.333 32,395.5C 31.3333,264.833 31.3333,134.167 32,3.5C 32.6897,1.64977 33.8564,0.316435 35.5,-0.5 Z"/></g>
<g><path style="opacity:1" fill="#f6f5f6" d="M 63.5,-0.5 C 163.5,-0.5 263.5,-0.5 363.5,-0.5C 365.144,0.316435 366.31,1.64977 367,3.5C 367.5,20.8301 367.667,38.1635 367.5,55.5C 367.5,162.167 367.5,268.833 367.5,375.5C 267.833,375.667 168.166,375.5 68.5,375C 66.6667,373.833 65.1667,372.333 64,370.5C 63.5,246.834 63.3333,123.167 63.5,-0.5 Z"/></g>
<g><path style="opacity:1" fill="#efecee" d="M 367.5,55.5 C 385.594,55.0269 403.594,55.5269 421.5,57C 422.126,57.7504 422.626,58.5838 423,59.5C 423.5,76.8301 423.667,94.1635 423.5,111.5C 423.667,224.5 423.5,337.5 423,450.5C 421.833,452.333 420.333,453.833 418.5,455C 326.834,455.5 235.167,455.667 143.5,455.5C 125.406,455.973 107.406,455.473 89.5,454C 88.8742,453.25 88.3742,452.416 88,451.5C 87.5001,434.17 87.3334,416.837 87.5,399.5C 178.501,399.667 269.501,399.5 360.5,399C 364.333,398.5 366.5,396.333 367,392.5C 367.499,386.843 367.666,381.176 367.5,375.5C 367.5,268.833 367.5,162.167 367.5,55.5 Z"/></g>
<g><path style="opacity:1" fill="#ed8193" d="M 183.5,319.5 C 183.5,255.5 183.5,191.5 183.5,127.5C 154.167,127.5 124.833,127.5 95.5,127.5C 95.3334,113.163 95.5001,98.8295 96,84.5C 97.1667,82.6667 98.6667,81.1667 100.5,80C 166.5,79.3333 232.5,79.3333 298.5,80C 300.333,81.1667 301.833,82.6667 303,84.5C 303.667,107.833 303.667,131.167 303,154.5C 299.87,159.312 295.704,160.479 290.5,158C 285.833,153.333 281.167,148.667 276.5,144C 261.504,143.5 246.504,143.333 231.5,143.5C 231.333,193.168 231.5,242.834 232,292.5C 236.667,297.167 241.333,301.833 246,306.5C 248.479,311.704 247.312,315.87 242.5,319C 222.836,319.5 203.169,319.667 183.5,319.5 Z"/></g>
<g><path style="opacity:0.999" fill="#e1dce0" d="M 423.5,111.5 C 440.837,111.333 458.17,111.5 475.5,112C 477.333,112.5 478.5,113.667 479,115.5C 479.667,246.167 479.667,376.833 479,507.5C 478.31,509.35 477.144,510.684 475.5,511.5C 366.167,511.5 256.833,511.5 147.5,511.5C 145.856,510.684 144.69,509.35 144,507.5C 143.5,490.17 143.333,472.837 143.5,455.5C 235.167,455.667 326.834,455.5 418.5,455C 420.333,453.833 421.833,452.333 423,450.5C 423.5,337.5 423.667,224.5 423.5,111.5 Z"/></g>
<g><path style="opacity:1" fill="#e7576f" d="M 95.5,127.5 C 124.833,127.5 154.167,127.5 183.5,127.5C 183.5,191.5 183.5,255.5 183.5,319.5C 174.494,319.666 165.494,319.5 156.5,319C 151.465,315.987 150.298,311.82 153,306.5C 157.667,301.833 162.333,297.167 167,292.5C 167.5,242.834 167.667,193.168 167.5,143.5C 152.496,143.333 137.496,143.5 122.5,144C 117.833,148.667 113.167,153.333 108.5,158C 103.18,160.702 99.0133,159.535 96,154.5C 95.5002,145.506 95.3336,136.506 95.5,127.5 Z"/></g>
</svg>
