<svg aria-hidden="true" style="position: absolute; width: 0; height: 0; overflow: hidden;" version="1.1" xmlns="http://www.w3.org/2000/svg" xmlns:xlink="http://www.w3.org/1999/xlink">
<defs>
<symbol id="icon-split-screen" viewBox="0 0 64 64">
<path d="M-0.333 2.333c0 19.556 0 39.111 0 58.667 21.333 0 42.667 0 64 0 0-19.556 0-39.111 0-58.667-21.333 0-42.667 0-64 0zM5 7.667c8 0 16 0 24 0 0 16 0 32 0 48-8 0-16 0-24 0 0-16 0-32 0-48zM34.333 7.667c8 0 16 0 24 0 0 16 0 32 0 48-8 0-16 0-24 0 0-16 0-32 0-48z"></path>
</symbol>
<symbol id="icon-unordered-list" viewBox="0 0 64 64">
<path d="M10.667 28c-2.213 0-4 1.787-4 4s1.787 4 4 4c2.213 0 4-1.787 4-4s-1.787-4-4-4zM10.667 12c-2.213 0-4 1.787-4 4s1.787 4 4 4c2.213 0 4-1.787 4-4s-1.787-4-4-4zM10.667 44c-2.213 0-4 1.813-4 4s1.813 4 4 4c2.187 0 4-1.813 4-4s-1.787-4-4-4zM18.667 50.667h37.333v-5.333h-37.333v5.333zM18.667 34.667h37.333v-5.333h-37.333v5.333zM18.667 13.333v5.333h37.333v-5.333h-37.333z"></path>
</symbol>
<symbol id="icon-fullscreen" viewBox="0 0 64 64">
<path d="M18.667 37.333h-5.333v13.333h13.333v-5.333h-8v-8zM13.333 26.667h5.333v-8h8v-5.333h-13.333v13.333zM45.333 45.333h-8v5.333h13.333v-13.333h-5.333v8zM37.333 13.333v5.333h8v8h5.333v-13.333h-13.333z"></path>
</symbol>
<symbol id="icon-eye" viewBox="0 0 64 64">
<path d="M32 12c-13.333 0-24.72 8.293-29.333 20 4.613 11.707 16 20 29.333 20s24.72-8.293 29.333-20c-4.613-11.707-16-20-29.333-20zM32 45.333c-7.36 0-13.333-5.973-13.333-13.333s5.973-13.333 13.333-13.333c7.36 0 13.333 5.973 13.333 13.333s-5.973 13.333-13.333 13.333zM32 24c-4.427 0-8 3.573-8 8s3.573 8 8 8c4.427 0 8-3.573 8-8s-3.573-8-8-8z"></path>
</symbol>
<symbol id="icon-menu-vertical" viewBox="0 0 64 64">
<path d="M27 7.667c3.287-0.202 6.509 0.021 9.667 0.667 0.534 3.279 0.423 6.502-0.333 9.667-3.279 0.534-6.502 0.423-9.667-0.333-0.518-3.389-0.407-6.723 0.333-10z"></path>
<path d="M27 26.333c3.287-0.202 6.509 0.021 9.667 0.667 0.534 3.279 0.423 6.502-0.333 9.667-3.279 0.534-6.502 0.423-9.667-0.333-0.518-3.389-0.407-6.723 0.333-10z"></path>
<path d="M27 45c3.287-0.202 6.509 0.021 9.667 0.667 0.534 3.279 0.423 6.502-0.333 9.667-3.279 0.534-6.502 0.423-9.667-0.333-0.518-3.389-0.407-6.723 0.333-10z"></path>
</symbol>
<symbol id="icon-link" viewBox="0 0 64 64">
<path d="M10.4 32c0-4.56 3.707-8.267 8.267-8.267h10.667v-5.067h-10.667c-7.36 0-13.333 5.973-13.333 13.333s5.973 13.333 13.333 13.333h10.667v-5.067h-10.667c-4.56 0-8.267-3.707-8.267-8.267zM21.333 34.667h21.333v-5.333h-21.333v5.333zM45.333 18.667h-10.667v5.067h10.667c4.56 0 8.267 3.707 8.267 8.267s-3.707 8.267-8.267 8.267h-10.667v5.067h10.667c7.36 0 13.333-5.973 13.333-13.333s-5.973-13.333-13.333-13.333z"></path>
</symbol>
<symbol id="icon-code" viewBox="0 0 64 64">
<path d="M25.067 44.267l-12.267-12.267 12.267-12.267-3.733-3.733-16 16 16 16 3.733-3.733zM38.933 44.267l12.267-12.267-12.267-12.267 3.733-3.733 16 16-16 16-3.733-3.733z"></path>
</symbol>
<symbol id="icon-quote" viewBox="0 0 64 64">
<path d="M16 45.333h8l5.333-10.667v-16h-16v16h8l-5.333 10.667zM37.333 45.333h8l5.333-10.667v-16h-16v16h8l-5.333 10.667z"></path>
</symbol>
<symbol id="icon-check-list" viewBox="0 0 64 64">
<path d="M37.333 26.667h-32v5.333h32v-5.333zM37.333 16h-32v5.333h32v-5.333zM5.333 42.667h21.333v-5.333h-21.333v5.333zM57.333 30.667l4 4-18.64 18.667-12.027-12 4-4 8.027 8 14.64-14.667z"></path>
</symbol>
<symbol id="icon-ordered-list" viewBox="0 0 64 64">
<path d="M8 45.333h5.333v1.333h-2.667v2.667h2.667v1.333h-5.333v2.667h8v-10.667h-8v2.667zM10.667 21.333h2.667v-10.667h-5.333v2.667h2.667v8zM8 29.333h4.8l-4.8 5.6v2.4h8v-2.667h-4.8l4.8-5.6v-2.4h-8v2.667zM21.333 13.333v5.333h37.333v-5.333h-37.333zM21.333 50.667h37.333v-5.333h-37.333v5.333zM21.333 34.667h37.333v-5.333h-37.333v5.333z"></path>
</symbol>
<symbol id="icon-strikethrough" viewBox="0 0 64 64">
<path d="M18.267 18.88c0-7.227 6.933-10.88 14.373-10.88 4.373 0 8 1.307 10.4 3.413 2.053 1.733 3.893 4.613 3.893 8.64h-8.027c0-0.827-0.133-1.573-0.4-2.267-0.773-2.293-3.2-3.413-6-3.413-4.96 0-6.24 2.72-6.24 4.533 0 1.28 0.667 2.347 1.973 3.227 1.013 0.667 2.053 1.28 3.76 1.867h-12.293c-0.56-0.907-1.44-2.373-1.44-5.12zM56 32v-5.333h-48v5.333h25.653c3.067 1.2 5.227 2 5.227 5.253 0 2.667-2.16 4.453-6.080 4.453-4.107 0-7.813-1.44-7.813-6.693h-7.92c0 1.467 0.213 3.013 0.64 4.213 2.16 6.107 8.773 8.8 15.12 8.8 6.053 0 14.133-2.373 14.133-10.8 0-0.8-0.027-3.093-1.28-5.173h10.32v-0.053z"></path>
</symbol>
<symbol id="icon-heading" viewBox="0 0 64 64">
<path d="M13.333 10.667v8h14.667v32h8v-32h14.667v-8h-37.333z"></path>
</symbol>
<symbol id="icon-italic" viewBox="0 0 64 64">
<path d="M26.667 10.667v8h5.893l-9.12 21.333h-7.44v8h21.333v-8h-5.893l9.12-21.333h7.44v-8h-21.333z"></path>
</symbol>
<symbol id="icon-bold" viewBox="0 0 64 64">
<path d="M41.6 28.773c2.587-1.787 4.4-4.72 4.4-7.44 0-6.027-4.667-10.667-10.667-10.667h-16.667v37.333h18.773c5.573 0 9.893-4.533 9.893-10.107 0-4.053-2.293-7.52-5.733-9.12zM26.667 17.333h8c2.213 0 4 1.787 4 4s-1.787 4-4 4h-8v-8zM36 41.333h-9.333v-8h9.333c2.213 0 4 1.787 4 4s-1.787 4-4 4z"></path>
</symbol>
</defs>
</svg>